<svg id="Layout_1" data-name="Layout 1" xmlns="http://www.w3.org/2000/svg" viewBox="0 0 1243.72 260.59">
<defs>
<style>.cls-1{fill:#fff;}.cls-2{fill:#85fcff;}.cls-3{fill:#00c3d6;}.cls-4{fill:#1fb5ff;}.cls-5{fill:#0057ff;}</style>
</defs>
<rect class="cls-1" x="351.22" y="86.51" width="4.69" height="122.23"/>
<rect class="cls-1" x="296.1" y="63.23" width="114.92" height="4.68"/>
<path class="cls-1" d="M1236.84,499.4h-49.3v4.68h49.3a61.06,61.06,0,0,1,61,61v14.15a61.06,61.06,0,0,1-61,61h-44.62v-76h-4.68V644.9h49.3a65.75,65.75,0,0,0,65.68-65.67V565.08A65.76,65.76,0,0,0,1236.84,499.4Z" transform="translate(-338.14 -436.17)"/>
<path class="cls-1" d="M881.05,543.74a44.39,44.39,0,0,0-44.34-44.34H784.53v4.68h52.18a39.66,39.66,0,0,1,0,79.31h-48.6v4.68h48.6c.61,0,1.2-.07,1.8-.09l0,0,36.82,56.9H881l-37.22-57.41,0,0A44.36,44.36,0,0,0,881.05,543.74Z" transform="translate(-338.14 -436.17)"/>
<rect class="cls-1" x="998.68" y="63.23" width="95.14" height="4.68"/>
<polygon class="cls-1" points="1003.37 138.32 1080.83 138.32 1080.83 134.75 998.68 134.75 998.68 208.74 1093.82 208.74 1093.82 204.05 1003.37 204.05 1003.37 138.32"/>
<rect class="cls-1" x="582.64" y="63.23" width="95.14" height="4.68"/>
<polygon class="cls-1" points="587.33 138.32 664.79 138.32 664.79 134.75 582.64 134.75 582.64 208.74 677.78 208.74 677.78 204.05 587.33 204.05 587.33 138.32"/>
<rect class="cls-1" x="716.02" y="63.23" width="95.14" height="4.68"/>
<polygon class="cls-1" points="720.71 138.32 798.17 138.32 798.17 134.75 716.02 134.75 716.02 208.74 811.15 208.74 811.15 204.05 720.71 204.05 720.71 138.32"/>
<polygon class="cls-1" points="1243.72 63.24 1237.67 63.24 1120.9 208.75 1126.88 208.75 1181.35 140.92 1235.83 208.75 1241.85 208.75 1184.36 137.17 1243.72 63.24"/>
<polygon class="cls-1" points="1172.8 122.76 1125 63.24 1119.03 63.24 1169.17 125.69 1172.8 122.76"/>
<polygon class="cls-2" points="113.31 0 113.31 14.82 74.52 39.5 35.73 64.17 34.48 64.95 33.32 65.68 32.12 66.46 32.1 66.46 20.46 59.05 21.69 58.27 22.84 57.54 24.09 56.76 68.7 28.38 113.31 0"/>
<polygon class="cls-3" points="226.55 72.03 226.55 86.88 113.31 14.82 113.31 0 226.55 72.03"/>
<polygon class="cls-4" points="113.31 29.03 113.31 43.88 58.55 78.69 57.3 79.49 56.15 80.22 44.51 72.81 45.67 72.08 46.92 71.28 113.31 29.03"/>
<polygon class="cls-5" points="226.55 101.11 226.55 115.91 113.31 43.88 113.31 29.03 226.55 101.11"/>
<polygon class="cls-5" points="113.31 57.8 113.31 72.65 81.19 93.09 79.94 93.87 68.28 86.45 69.53 85.67 113.31 57.8"/>
<polygon class="cls-4" points="226.55 129.86 226.55 144.71 113.31 72.65 113.31 57.8 226.55 129.86"/>
<polygon class="cls-3" points="113.31 86.95 113.31 101.77 104.08 107.65 92.42 100.24 113.31 86.95"/>
<polygon class="cls-2" points="226.55 158.98 226.55 173.83 113.31 101.77 113.31 86.95 226.55 158.98"/>
<polygon class="cls-2" points="113.24 260.59 113.24 245.77 152.03 221.09 190.82 196.42 192.07 195.64 193.23 194.91 194.44 194.13 194.46 194.13 206.09 201.54 204.87 202.32 203.71 203.05 202.46 203.83 157.85 232.21 113.24 260.59"/>
<polygon class="cls-3" points="0 188.56 0 173.71 113.24 245.77 113.24 260.59 0 188.56"/>
<polygon class="cls-4" points="113.24 231.56 113.24 216.72 168 181.9 169.25 181.1 170.41 180.37 182.04 187.78 180.89 188.51 179.64 189.31 113.24 231.56"/>
<polygon class="cls-5" points="0 159.48 0 144.68 113.24 216.72 113.24 231.56 0 159.48"/>
<polygon class="cls-5" points="113.24 202.79 113.24 187.94 145.37 167.5 146.62 166.72 158.28 174.14 157.03 174.92 113.24 202.79"/>
<polygon class="cls-4" points="0 130.73 0 115.89 113.24 187.94 113.24 202.79 0 130.73"/>
<polygon class="cls-3" points="113.24 173.64 113.24 158.82 122.47 152.94 134.13 160.35 113.24 173.64"/>
<polygon class="cls-2" points="0 101.61 0 86.76 113.24 158.82 113.24 173.64 0 101.61"/>
</svg>